Coordinates
version=1
nRows=8
nColumns=40
inDegrees=yes

Units are S.I. units (second, meters, Newtons, ...)
Angles are in degrees.

endheader
time	pelvis_tilt	pelvis_list	pelvis_rotation	pelvis_tx	pelvis_ty	pelvis_tz	hip_flexion_r	hip_adduction_r	hip_rotation_r	knee_angle_r	knee_angle_r_beta	ankle_angle_r	subtalar_angle_r	mtp_angle_r	hip_flexion_l	hip_adduction_l	hip_rotation_l	knee_angle_l	knee_angle_l_beta	ankle_angle_l	subtalar_angle_l	mtp_angle_l	lumbar_extension	lumbar_bending	lumbar_rotation	arm_flex_r	arm_add_r	arm_rot_r	elbow_flex_r	pro_sup_r	wrist_flex_r	wrist_dev_r	arm_flex_l	arm_add_l	arm_rot_l	elbow_flex_l	pro_sup_l	wrist_flex_l	wrist_dev_l
      5.25000000	     -2.50205056	     14.20229348	     76.52566670	      0.60547344	      0.97389585	     -1.03893398	     13.34853884	     -1.12963888	     11.83446981	      1.55549077	      0.02714844	      6.26343578	      0.00000000	      0.00000000	    -29.83053912	     11.14480821	    -13.79334431	      2.28402368	      0.03986373	     19.84065235	      0.00000000	      0.00000000	    -30.40912753	     -6.67055126	      2.79994124	      5.40794352	    -12.61759123	      6.28063124	    143.16825889	     87.71775566	      0.00000000	      0.00000000	      2.23992747	    -14.50448780	      0.41503372	    142.05517489	     83.59937481	      0.00000000	      0.00000000
      5.26000000	     -2.54456731	     14.02689272	     76.49245199	      0.60675577	      0.97136748	     -1.03994569	     14.19806547	     -0.89147980	     10.76898868	      3.31945139	      0.05793536	      6.42342586	      0.00000000	      0.00000000	    -29.83893187	     11.07827463	    -14.20341973	      3.56073059	      0.06214647	     20.14655350	      0.00000000	      0.00000000	    -30.07348702	     -6.68259958	      2.96363463	      5.31604135	    -12.48980460	      6.11543573	    143.14557768	     87.96230064	      0.00000000	      0.00000000	      2.11209155	    -14.10811722	      0.33193835	    141.85755304	     85.21926858	      0.00000000	      0.00000000
      5.27000000	     -2.49181121	     13.85324400	     76.61012909	      0.60773105	      0.96908055	     -1.04130649	     15.05886077	     -0.65175207	      9.43517509	      5.60274217	      0.09778630	      6.37225640	      0.00000000	      0.00000000	    -29.84452316	     10.84831239	    -14.25802147	      4.91657875	      0.08581049	     20.67984835	      0.00000000	      0.00000000	    -29.73604603	     -6.47502118	      3.02989087	      5.11984695	    -12.43186640	      6.09695962	    143.18686142	     87.88686162	      0.00000000	      0.00000000	      1.86902928	    -13.63046682	      0.44749309	    141.71968395	     84.55816037	      0.00000000	      0.00000000
      5.28000000	     -2.63109628	     13.75010957	     76.61528590	      0.60885063	      0.96678738	     -1.04277247	     16.06403227	     -0.62086440	      8.28854274	      8.43896843	      0.14728778	      6.56040283	      0.00000000	      0.00000000	    -29.84591934	     10.87303364	    -14.61150775	      6.37136416	      0.11120128	     20.65670635	      0.00000000	      0.00000000	    -29.37659288	     -6.52510955	      3.07630837	      5.03518462	    -12.38246461	      6.08570464	    143.17729053	     87.94140929	      0.00000000	      0.00000000	      1.57263575	    -13.20164300	      0.34053407	    141.59310902	     85.10859917	      0.00000000	      0.00000000
      5.29000000	     -2.60880754	     13.76076199	     76.70365125	      0.61022261	      0.96507236	     -1.04441279	     16.47754974	     -0.51914239	      7.56917631	     10.53789393	      0.18392095	      6.02069923	      0.00000000	      0.00000000	    -29.85230713	     10.62524432	    -15.16796907	      8.18658111	      0.14288279	     20.56058336	      0.00000000	      0.00000000	    -29.15532373	     -6.41649315	      3.12301885	      4.97845594	    -12.29125687	      5.90701220	    143.18038155	     87.93796933	      0.00000000	      0.00000000	      1.33344282	    -12.78923782	      0.25555920	    141.46255377	     85.22492495	      0.00000000	      0.00000000
      5.30000000	     -2.52390597	     13.74040348	     76.84574946	      0.61171514	      0.96350707	     -1.04624491	     16.89144895	     -0.36884918	      6.84001654	     12.54323066	      0.21892067	      5.77233724	      0.00000000	      0.00000000	    -29.85148164	     10.25736332	    -15.31953495	      9.90872658	      0.17293990	     20.48800563	      0.00000000	      0.00000000	    -28.90081213	     -6.22077189	      3.13456983	      4.84499300	    -12.19314131	      5.77707102	    143.18726302	     87.93863493	      0.00000000	      0.00000000	      1.03926791	    -12.38951918	      0.21772575	    141.37253458	     85.36512743	      0.00000000	      0.00000000
      5.31000000	     -2.30360337	     13.79366337	     76.96576613	      0.61351966	      0.96241203	     -1.04792189	     17.18992069	     -0.04608150	      6.68369071	     14.47037330	      0.25255566	      5.19666671	      0.00000000	      0.00000000	    -29.85180242	      9.73048400	    -15.12590027	     11.77152265	      0.20545183	     20.15904141	      0.00000000	      0.00000000	    -28.75998017	     -5.94049606	      3.18364721	      4.75615227	    -12.12141893	      5.67643738	    143.16692819	     87.93071663	      0.00000000	      0.00000000	      0.76833581	    -12.07948400	      0.20098461	    141.28056246	     85.45657187	      0.00000000	      0.00000000
      5.32000000	     -1.94114482	     13.93914078	     77.03048970	      0.61558227	      0.96191277	     -1.04974533	     17.25515478	      0.44990842	      7.05708154	     16.26546705	      0.28388595	      4.39981277	      0.00000000	      0.00000000	    -29.85415390	      9.07042146	    -15.00005396	     13.85475539	      0.24181110	     19.56265587	      0.00000000	      0.00000000	    -28.72302115	     -5.56342279	      3.33946360	      4.68593533	    -12.08704632	      5.54700639	    143.15908370	     87.91666729	      0.00000000	      0.00000000	      0.57523817	    -11.79468903	      0.15067966	    141.16844043	     85.44073938	      0.00000000	      0.00000000
